<?xml version="1.0" encoding="utf-8"?>
<!-- Generator: Adobe Illustrator 22.0.1, SVG Export Plug-In . SVG Version: 6.00 Build 0)  -->
<svg version="1.1" id="Calque_1" xmlns="http://www.w3.org/2000/svg" xmlns:xlink="http://www.w3.org/1999/xlink" x="0px" y="0px"
	 viewBox="0 0 400 400" style="enable-background:new 0 0 400 400;" xml:space="preserve">
<style type="text/css">
	.st0{fill:none;stroke:#000000;stroke-width:10;stroke-opacity:0.25;}
	.st1{fill:none;stroke:#1389FD;stroke-width:10;}
	.st2{fill:#F64545;}
	.st3{fill:none;stroke:#F64545;stroke-width:2.8145;}
</style>
<g>
	<path class="st0" d="M-11.9,318.5L89.7,250l62.2,26.3l139.1-108.5h50.6L414,81.5"/>
	<path class="st1" d="M-11.9,164l158.8,65.7h144.5L414,128.6"/>
	<path class="st2" d="M159.1,179c4.1-2.9,7.3-5.3,9.6-7.3c2.3-2,3.9-3.9,4.9-5.5c1-1.7,1.5-3.4,1.5-5.2c0-1.7-0.5-3-1.6-4.1
		c-1-1-2.5-1.6-4.3-1.6c-2,0-3.5,0.7-4.7,2c-1.1,1.3-1.8,3.1-1.9,5.4l-4.4-2c0.3-3,1.5-5.4,3.5-7.1c2-1.7,4.6-2.6,7.9-2.6
		c2.3,0,4.2,0.4,5.8,1.3c1.6,0.9,2.9,2,3.8,3.5c0.9,1.5,1.3,3.2,1.3,5c0,3-1.1,5.9-3.4,8.6c-2.2,2.7-5.9,5.8-11.1,9.1v0.1
		c1.6-0.1,3.3-0.2,5.2-0.2l9.9,0l0,4.4l-21.8,0L159.1,179z M197.2,183.2c-4,0-7-1.4-9-4.1c-2-2.8-3-6.8-3.1-12.1c0-5.3,1-9.3,3-12
		c2.1-2.8,5.1-4.1,9-4.1c4,0,7,1.4,9,4.1c2.1,2.7,3.1,6.7,3.1,12c0,5.3-1,9.3-3.1,12.1C204.1,181.8,201.1,183.2,197.2,183.2z
		 M197.2,178.9c2.3,0,4-1,5.2-3c1.2-2,1.8-5,1.8-8.9c0-3.9-0.6-6.9-1.8-8.8c-1.2-2-2.9-3-5.2-3c-4.6,0-6.9,4-6.9,11.8
		C190.3,174.9,192.6,178.9,197.2,178.9z"/>
	<line class="st3" x1="145.6" y1="140.2" x2="221.3" y2="140.7"/>
	<path class="st2" d="M175.4,93.3l0,31.4l-5,0l0-23.2c0-1.1,0-1.9,0-2.5c-1.1,1-2.3,2-3.7,2.7c-1.4,0.8-2.8,1.3-4.2,1.6l-1-4.4
		c0.8-0.1,1.9-0.4,3.2-1c1.3-0.6,2.6-1.3,3.8-2.1c1.2-0.8,2-1.6,2.6-2.4L175.4,93.3z M193.1,92.8c3.2,0,5.8,0.8,7.7,2.3
		c1.9,1.5,2.9,3.6,2.9,6.1c0,1.6-0.4,3-1.2,4.2c-0.8,1.2-1.9,2.1-3.4,2.8v0c1.9,0.7,3.3,1.7,4.3,3c1,1.3,1.6,3,1.6,4.9
		c0,2.7-1.1,4.9-3.2,6.5c-2.1,1.6-5,2.4-8.6,2.4c-3.6,0-6.5-0.8-8.7-2.4c-2.1-1.6-3.2-3.8-3.2-6.5c0-1.9,0.5-3.5,1.6-4.9
		c1-1.4,2.5-2.4,4.4-3v0c-1.5-0.6-2.6-1.5-3.4-2.7c-0.8-1.2-1.2-2.7-1.2-4.3c0-2.6,0.9-4.6,2.8-6.1
		C187.3,93.6,189.9,92.8,193.1,92.8z M193.2,97.1c-1.7,0-3,0.4-4,1.2c-1,0.8-1.5,1.9-1.5,3.4c0,1.4,0.5,2.6,1.5,3.4
		c1,0.8,2.3,1.2,4,1.2c1.6,0,3-0.4,3.9-1.2c1-0.8,1.5-2,1.5-3.4c0-1.4-0.5-2.6-1.5-3.4C196.2,97.5,194.8,97.1,193.2,97.1z
		 M193.2,120.9c2.1,0,3.7-0.5,4.8-1.4c1.2-0.9,1.8-2.2,1.8-3.8c0-1.6-0.6-2.9-1.8-3.8c-1.2-0.9-2.8-1.4-4.9-1.4s-3.7,0.5-4.9,1.4
		c-1.2,0.9-1.8,2.2-1.8,3.8c0,1.6,0.6,2.9,1.8,3.8C189.5,120.4,191.1,120.9,193.2,120.9z"/>
</g>
</svg>
