
<svg width="400" height="300" viewbox="0 0 400 300" fill="none" xmlns="http://www.w3.org/2000/svg">
  <rect x="74" y="227" width="233" height="20" rx="10" fill="#EB5757"></rect>
  <circle cx="27.5" cy="235.5" r="25.8481" stroke="black" stroke-width="3.30371"></circle>
  <rect x="74" y="145" width="125" height="20" rx="10" fill="#C4C4C4"></rect>
  <circle cx="27.5" cy="154.5" r="27.5" fill="#1389FD"></circle>
  <path d="M14.0933 154.627L22.6173 163.151L41.1696 144.599" stroke="white" stroke-width="3.30371"></path>
  <rect x="74" y="65" width="308" height="20" rx="10" fill="#C4C4C4"></rect>
  <circle cx="27.5" cy="74.5" r="25.8481" stroke="black" stroke-width="3.30371"></circle>
  <path d="M84.815 6.06768C88.0923 6.06768 90.6296 6.97687 92.4268 8.79523C94.224 10.6136 95.1226 13.1931 95.1226 16.5338C95.1226 19.8746 94.224 22.4541 92.4268 24.2725C90.6296 26.0908 88.0923 27 84.815 27H76.7275V6.06768H84.815ZM84.593 23.5113C86.5805 23.5113 88.0712 22.9193 89.0649 21.7352C90.0798 20.53 90.5873 18.7962 90.5873 16.5338C90.5873 14.2715 90.0798 12.5482 89.0649 11.3642C88.0712 10.159 86.5805 9.5564 84.593 9.5564H81.1043V23.5113H84.593ZM111.435 21.8938H103.379L101.667 27H97.1948L104.838 6.06768H110.071L117.715 27H113.179L111.435 21.8938ZM110.357 18.6588L108.39 12.7597L107.439 9.58812H107.375L106.487 12.6963L104.458 18.6588H110.357ZM139.595 27H134.584L127.258 14.6943L125.45 11.1739H125.418L125.545 14.8846V27H121.613V6.06768H126.592L133.918 18.3416L135.726 21.8938H135.789L135.663 18.1831V6.06768H139.595V27ZM153.495 5.75053C155.44 5.75053 157.111 6.07826 158.506 6.73371C159.902 7.36803 161.128 8.38293 162.185 9.77841L159.172 12.728C158.622 11.5862 157.893 10.7405 156.984 10.1907C156.075 9.61983 154.922 9.33439 153.527 9.33439C152.258 9.33439 151.275 9.57755 150.577 10.0639C149.901 10.529 149.562 11.1528 149.562 11.9351C149.562 12.654 149.911 13.2248 150.609 13.6477C151.307 14.0706 152.565 14.4406 154.383 14.7578C156.286 15.1172 157.798 15.5612 158.918 16.0898C160.039 16.6184 160.853 17.2844 161.36 18.0879C161.889 18.8702 162.153 19.8534 162.153 21.0375C162.153 22.3272 161.783 23.4478 161.043 24.3993C160.324 25.3296 159.31 26.0485 157.999 26.556C156.709 27.0634 155.229 27.3172 153.558 27.3172C151.254 27.3172 149.361 27 147.881 26.3657C146.422 25.7102 145.238 24.727 144.329 23.4161L146.93 20.308C147.712 21.5978 148.611 22.4964 149.626 23.0038C150.641 23.4901 151.899 23.7333 153.4 23.7333C154.753 23.7333 155.778 23.5219 156.476 23.099C157.195 22.6761 157.555 22.0735 157.555 21.2912C157.555 20.7203 157.216 20.2446 156.54 19.864C155.884 19.4834 154.7 19.124 152.988 18.7857C151.021 18.3839 149.446 17.9082 148.262 17.3584C147.099 16.8087 146.253 16.1321 145.725 15.3286C145.196 14.5252 144.932 13.5314 144.932 12.3474C144.932 11.0999 145.27 9.97928 145.947 8.98552C146.623 7.97062 147.606 7.17773 148.896 6.60685C150.207 6.03597 151.74 5.75053 153.495 5.75053ZM184.172 5.75053C186.413 5.75053 188.157 6.27912 189.405 7.33631C190.673 8.3935 191.308 9.76784 191.308 11.4593C191.308 12.4954 191.096 13.394 190.673 14.1552C190.25 14.8952 189.732 15.4555 189.119 15.8361C188.506 16.2167 187.925 16.407 187.375 16.407V16.5021C188.073 16.5021 188.749 16.6818 189.405 17.0413C190.081 17.4007 190.631 17.9505 191.054 18.6905C191.498 19.4094 191.72 20.2869 191.72 21.3229C191.72 22.4858 191.382 23.5219 190.705 24.431C190.05 25.3402 189.13 26.0485 187.946 26.556C186.762 27.0634 185.409 27.3172 183.886 27.3172C181.835 27.3172 180.154 26.9049 178.843 26.0802C177.554 25.2345 176.613 23.9342 176.021 22.1792L179.985 20.4031C180.218 21.5661 180.641 22.4224 181.254 22.9721C181.888 23.5219 182.776 23.7967 183.918 23.7967C184.996 23.7967 185.853 23.5324 186.487 23.0038C187.121 22.4541 187.438 21.7246 187.438 20.8155C187.438 19.8428 187.132 19.1451 186.519 18.7222C185.927 18.2782 184.986 18.0562 183.696 18.0562H182.649V15.0115H183.537C185.821 15.0115 186.963 14.0495 186.963 12.1254C186.963 11.195 186.698 10.4867 186.17 10.0004C185.662 9.51412 184.933 9.27096 183.981 9.27096C183.009 9.27096 182.226 9.52469 181.634 10.0321C181.042 10.5396 180.672 11.2796 180.524 12.2522L176.623 10.825C177.025 9.15467 177.892 7.89662 179.224 7.05087C180.577 6.18398 182.226 5.75053 184.172 5.75053ZM220.802 19.2931C220.802 21.8092 220.084 23.7756 218.646 25.1922C217.208 26.6088 215.189 27.3172 212.588 27.3172C210.178 27.3172 208.349 26.7674 207.101 25.6679C205.854 24.5473 205.23 23.025 205.23 21.1009C205.23 20.5089 205.294 19.8851 205.42 19.2297L209.702 18.4685C209.617 19.0605 209.575 19.6525 209.575 20.2446C209.575 21.4498 209.829 22.3378 210.336 22.9087C210.844 23.4584 211.637 23.7333 212.715 23.7333C214.068 23.7333 215.02 23.3316 215.569 22.5281C216.14 21.7035 216.426 20.4243 216.426 18.6905V6.06768H220.802V19.2931ZM235.759 5.75053C237.81 5.75053 239.586 6.18398 241.087 7.05087C242.61 7.91776 243.773 9.16524 244.576 10.7933C245.401 12.4002 245.813 14.3137 245.813 16.5338C245.813 18.7539 245.401 20.678 244.576 22.3061C243.773 23.913 242.61 25.1499 241.087 26.0168C239.586 26.8837 237.81 27.3172 235.759 27.3172C233.708 27.3172 231.922 26.8837 230.399 26.0168C228.877 25.1499 227.703 23.913 226.879 22.3061C226.075 20.678 225.674 18.7539 225.674 16.5338C225.674 14.3137 226.075 12.4002 226.879 10.7933C227.703 9.16524 228.877 7.91776 230.399 7.05087C231.922 6.18398 233.708 5.75053 235.759 5.75053ZM235.759 9.33439C233.983 9.33439 232.609 9.95813 231.636 11.2056C230.685 12.432 230.209 14.208 230.209 16.5338C230.209 18.8597 230.685 20.6463 231.636 21.8938C232.609 23.1201 233.983 23.7333 235.759 23.7333C237.514 23.7333 238.867 23.1201 239.819 21.8938C240.791 20.6463 241.278 18.8597 241.278 16.5338C241.278 14.208 240.791 12.432 239.819 11.2056C238.867 9.95813 237.514 9.33439 235.759 9.33439ZM268.591 18.7539C268.591 21.5872 267.83 23.7227 266.308 25.1605C264.807 26.5983 262.587 27.3172 259.648 27.3172C256.709 27.3172 254.478 26.5983 252.956 25.1605C251.454 23.7227 250.704 21.5872 250.704 18.7539V6.06768H255.081V18.5636C255.081 20.3186 255.451 21.6189 256.191 22.4647C256.952 23.3104 258.104 23.7333 259.648 23.7333C261.191 23.7333 262.333 23.3104 263.073 22.4647C263.813 21.6189 264.183 20.3186 264.183 18.5636V6.06768H268.591V18.7539ZM282.732 18.9759H278.799V27H274.486V6.06768H283.715C286.104 6.06768 287.965 6.63857 289.297 7.78033C290.65 8.90095 291.327 10.4867 291.327 12.5377C291.327 14.0389 290.957 15.2969 290.217 16.3118C289.477 17.3267 288.419 18.0562 287.045 18.5002L292.564 27H287.648L282.732 18.9759ZM278.799 15.6458H283.144C284.413 15.6458 285.343 15.4027 285.935 14.9163C286.548 14.4089 286.855 13.6371 286.855 12.6011C286.855 11.5651 286.548 10.8039 285.935 10.3176C285.343 9.81013 284.413 9.5564 283.144 9.5564H278.799V15.6458ZM304.479 5.75053C306.424 5.75053 308.094 6.07826 309.49 6.73371C310.885 7.36803 312.112 8.38293 313.169 9.77841L310.156 12.728C309.606 11.5862 308.877 10.7405 307.967 10.1907C307.058 9.61983 305.906 9.33439 304.51 9.33439C303.242 9.33439 302.259 9.57755 301.561 10.0639C300.884 10.529 300.546 11.1528 300.546 11.9351C300.546 12.654 300.895 13.2248 301.593 13.6477C302.29 14.0706 303.548 14.4406 305.367 14.7578C307.27 15.1172 308.781 15.5612 309.902 16.0898C311.023 16.6184 311.837 17.2844 312.344 18.0879C312.873 18.8702 313.137 19.8534 313.137 21.0375C313.137 22.3272 312.767 23.4478 312.027 24.3993C311.308 25.3296 310.293 26.0485 308.982 26.556C307.693 27.0634 306.212 27.3172 304.542 27.3172C302.237 27.3172 300.345 27 298.865 26.3657C297.406 25.7102 296.222 24.727 295.313 23.4161L297.914 20.308C298.696 21.5978 299.595 22.4964 300.609 23.0038C301.624 23.4901 302.882 23.7333 304.384 23.7333C305.737 23.7333 306.762 23.5219 307.46 23.099C308.179 22.6761 308.538 22.0735 308.538 21.2912C308.538 20.7203 308.2 20.2446 307.523 19.864C306.868 19.4834 305.684 19.124 303.971 18.7857C302.005 18.3839 300.43 17.9082 299.246 17.3584C298.083 16.8087 297.237 16.1321 296.708 15.3286C296.18 14.5252 295.915 13.5314 295.915 12.3474C295.915 11.0999 296.254 9.97928 296.93 8.98552C297.607 7.97062 298.59 7.17773 299.88 6.60685C301.191 6.03597 302.724 5.75053 304.479 5.75053Z" fill="black" fill-opacity="0.25"></path>
</svg>
