
<svg width="415" height="170" viewbox="0 0 170 415" fill="none" xmlns="http://www.w3.org/2000/svg">
  <rect x="313.5" y="106" width="100" height="19" rx="9.5" fill="#1389FD"></rect>
  <rect x="244.5" y="106" width="47" height="19" rx="9.5" fill="#1389FD"></rect>
  <rect x="67.5" y="106" width="149" height="19" rx="9.5" fill="#1389FD"></rect>
  <path d="M7.27536 84.8501L38.049 115.624L7.27536 146.397" stroke="#1389FD" stroke-width="6.31372"></path>
  <rect x="173.5" y="30" width="179" height="19" rx="9.5" fill="#C4C4C4"></rect>
  <rect x="0.5" y="30" width="149" height="19" rx="9.5" fill="#C4C4C4"></rect>
  <path d="M393.184 14.2377C398.083 14.2377 402.073 15.3994 405.155 17.7229C408.236 20.0463 409.776 23.1779 409.776 27.1177C409.776 31.31 408.463 34.5931 405.836 36.9671C403.21 39.2905 399.775 40.6796 395.532 41.1341V49.241H389.244V37.8763C394.345 37.1186 397.982 35.9821 400.154 34.4669C402.326 32.9516 403.412 30.7544 403.412 27.8753C403.412 25.4003 402.503 23.4557 400.684 22.0415C398.866 20.6272 396.214 19.92 392.729 19.92C389.396 19.92 386.668 20.8545 384.547 22.7233C382.476 24.5417 381.238 27.0419 380.834 30.224L375.455 27.1177C376.313 23.1779 378.309 20.0463 381.44 17.7229C384.572 15.3994 388.486 14.2377 393.184 14.2377ZM392.275 55.9082C393.739 55.9082 394.926 56.3628 395.836 57.272C396.745 58.1812 397.199 59.3682 397.199 60.8329C397.199 62.2977 396.745 63.4847 395.836 64.3939C394.926 65.3031 393.739 65.7576 392.275 65.7576C390.81 65.7576 389.623 65.3031 388.714 64.3939C387.804 63.4847 387.35 62.2977 387.35 60.8329C387.35 59.3682 387.804 58.1812 388.714 57.272C389.623 56.3628 390.81 55.9082 392.275 55.9082Z" fill="black"></path>
</svg>
