<?xml version="1.0" encoding="utf-8"?>
<!-- Generator: Adobe Illustrator 22.0.1, SVG Export Plug-In . SVG Version: 6.00 Build 0)  -->
<svg version="1.1" id="_x31_6d5121d-5b4c-4201-9e17-0e5b96b27f8f"
	 xmlns="http://www.w3.org/2000/svg" xmlns:xlink="http://www.w3.org/1999/xlink" x="0px" y="0px" viewBox="0 0 213.8 42"
	 style="enable-background:new 0 0 213.8 42;" xml:space="preserve">
<style type="text/css">
	.st0{fill:none;stroke:#000000;stroke-width:1.5;stroke-miterlimit:10;}
</style>
<title>logotype-black</title>
<path class="st0" d="M203.3,0v17.3c0,5.7,4.6,10.4,10.4,10.4c0,0,0,0,0,0 M213.8,8.6h-17.4 M194.4,10.7c0,0-2.1-4.3-9.6-4
	c0,0-5.9,0.3-6.6,3.8c0,0-2,6.5,7.9,6.5h0.3c9.9,0,7.9,6.5,7.9,6.5c-0.8,3.5-6.6,3.8-6.6,3.8c-7.5,0.4-9.6-4-9.6-4 M172.8,42V17.2
	 M172.8,17.2V6.7 M172.8,17.2c0.2,5.8-4.4,10.6-10.1,10.8s-10.6-4.4-10.8-10.1c0-0.2,0-0.4,0-0.6V6.7 M146,10.7c0,0-2.1-4.3-9.6-4
	c0,0-5.9,0.3-6.6,3.8c0,0-2,6.5,7.9,6.5h0.3c9.8,0,7.8,6.5,7.8,6.5c-0.8,3.5-6.6,3.8-6.6,3.8c-7.5,0.4-9.6-4-9.6-4 M126.8,26.7
	c-5.7,0-10.4-4.7-10.4-10.4c0,0,0,0,0,0V0 M41.8,0.1v16.2c0-5.8,4.7-10.5,10.5-10.5s10.5,4.7,10.5,10.5v10.5 M37.5,9
	c-2-1.8-4.6-2.9-7.3-3c-5.8,0-10.4,4.7-10.4,10.4c0,5.8,4.7,10.4,10.4,10.4c2.7,0,5.4-1.1,7.3-3.1 M17.1,9.9c0,0-2.1-4.3-9.6-3.9
	c0,0-5.9,0.3-6.6,3.8c0,0-2,6.5,7.9,6.5h0.3c9.9,0,7.9,6.5,7.9,6.5c-0.8,3.5-6.6,3.8-6.6,3.8c-7.5,0.4-9.6-4-9.6-4 M99.7,26.8
	c-5.8,0-10.5-4.6-10.5-10.4S93.7,5.9,99.5,5.9c5.8,0,10.5,4.6,10.5,10.4c0,0,0,0.1,0,0.1C110,22.1,105.4,26.7,99.7,26.8
	C99.7,26.8,99.7,26.8,99.7,26.8L99.7,26.8z M75.8,26.8c-5.8,0-10.5-4.6-10.5-10.4c0-5.8,4.6-10.5,10.4-10.5
	c5.8,0,10.5,4.6,10.5,10.4c0,0,0,0.1,0,0.1C86.2,22.1,81.6,26.7,75.8,26.8C75.8,26.8,75.8,26.8,75.8,26.8L75.8,26.8z"/>
<line class="st0" x1="41.8" y1="26.8" x2="41.8" y2="16.2"/>
</svg>
