<!-- Generator: Adobe Illustrator 22.0.1, SVG Export Plug-In  -->
<svg version="1.1"
	 xmlns="http://www.w3.org/2000/svg" xmlns:xlink="http://www.w3.org/1999/xlink" xmlns:a="http://ns.adobe.com/AdobeSVGViewerExtensions/3.0/"
	 x="0px" y="0px" width="1399px" height="851.5px" viewBox="0 0 1399 851.5"
	 style="overflow:scroll;enable-background:new 0 0 1399 851.5;" xml:space="preserve">
<style type="text/css">
	.st0{fill-rule:evenodd;clip-rule:evenodd;fill:none;stroke:#000000;stroke-width:13;stroke-miterlimit:10;}
	.st1{fill:none;stroke:#000000;stroke-width:13;stroke-miterlimit:10;}
</style>
<defs>
</defs>
<path class="st0" d="M195,196"/>
<path class="st0" d="M422,196c-34-34-82-34-82-34c-64.6,0-117,52.4-117,117s52.4,117,117,117c0,0,44.5,2.5,82-35"/>
<path class="st0" d="M469,395V277c0-65.2,52.8-118,118-118s118,52.8,118,118v118"/>
<circle class="st0" cx="854" cy="278" r="117"/>
<circle class="st0" cx="1123" cy="278" r="117"/>
<path class="st0" d="M1399,395c-64.6,0-117-52.4-117-117V0"/>
<path class="st0" d="M1168,691.3c-64.6,0-117-52.4-117-117V455.8"/>
<line class="st0" x1="972" y1="477" x2="1209.5" y2="477"/>
<line class="st0" x1="469" y1="0" x2="469" y2="278"/>
<path class="st0" d="M705,455.5v118c0,65.2-52.8,118-118,118s-118-52.8-118-118v-118"/>
<line class="st0" x1="705" y1="851.5" x2="705" y2="573.5"/>
<path class="st1" d="M191.5,206.3c0,0-23.6-48.5-108.2-44.5c0,0-66.5,3-75,42c0,0-22.4,72.5,88.9,72.5l3.6,0.3
	c111.2,0,88.9,72.5,88.9,72.5c-8.5,39-75,42-75,42C30.1,395,6.5,346.5,6.5,346.5"/>
<path class="st1" d="M434.5,501.3c0,0-23.6-48.5-108.2-44.5c0,0-66.5,3-75,42c0,0-22.4,72.5,88.9,72.5l3.6,0.3
	c111.2,0,88.9,72.5,88.9,72.5c-8.5,39-75,42-75,42c-84.6,4-108.2-44.5-108.2-44.5"/>
<path class="st1" d="M950.5,501.3c0,0-23.6-48.5-108.2-44.5c0,0-66.5,3-75,42c0,0-22.4,72.5,88.9,72.5l3.6,0.3
	c111.2,0,88.9,72.5,88.9,72.5c-8.5,39-75,42-75,42c-84.6,4-108.2-44.5-108.2-44.5"/>
</svg>
