<svg id="16d5121d-5b4c-4201-9e17-0e5b96b27f8f" data-name="Calque 1" xmlns="http://www.w3.org/2000/svg" viewBox="0 0 213.75 42"><title>logotype-black</title><path d="M203.59,0V17.25A10.41,10.41,0,0,0,214,27.7m0-19.13H196.6m-1.91,2.17s-2.09-4.33-9.58-4c0,0-5.89.27-6.64,3.75,0,0-2,6.47,7.87,6.47l.32,0c9.85,0,7.87,6.47,7.87,6.47-.75,3.48-6.64,3.75-6.64,3.75-7.5.36-9.59-4-9.59-4M173,42V17.18m0,0V6.65m0,10.53a10.46,10.46,0,1,1-20.91,0V6.65m-5.84,4.09s-2.09-4.33-9.58-4c0,0-5.89.27-6.64,3.75,0,0-2,6.47,7.87,6.47l.32,0C148,17,146,23.48,146,23.48c-.75,3.48-6.64,3.75-6.64,3.75-7.5.36-9.58-4-9.58-4m-2.69,3.51a10.4,10.4,0,0,1-10.37-10.44V0M42,.07V16.24a10.45,10.45,0,1,1,20.9,0V26.77M37.8,9a11.22,11.22,0,0,0-7.26-3,10.44,10.44,0,0,0,0,20.88,10.21,10.21,0,0,0,7.26-3.12M17.39,9.93S15.3,5.6,7.8,6c0,0-5.89.27-6.64,3.75,0,0-2,6.47,7.87,6.47l.32,0c9.86,0,7.87,6.47,7.87,6.47-.75,3.48-6.64,3.75-6.64,3.75-7.49.36-9.58-4-9.58-4m98.9,4.32a10.44,10.44,0,1,1,10.36-10.44A10.4,10.4,0,0,1,99.9,26.77Zm-23.83,0A10.44,10.44,0,1,1,86.43,16.33,10.4,10.4,0,0,1,76.07,26.77Z" transform="translate(-0.25)" fill="none" stroke="#000" stroke-miterlimit="10" stroke-width="1.5"/></svg>