<svg width="214" height="42" viewBox="0 0 214 42" fill="none" xmlns="http://www.w3.org/2000/svg">
<path d="M203.594 0.0334354V17.252C203.594 23.02 208.234 27.6957 213.957 27.6957M214 8.57129H196.596M194.692 10.7358C194.692 10.7358 192.604 6.40674 185.107 6.76385C185.107 6.76385 179.218 7.03163 178.468 10.5128C178.468 10.5128 176.487 16.9841 186.339 16.9841L186.658 17.0081C196.51 17.0081 194.529 23.4795 194.529 23.4795C193.779 26.9608 187.889 27.2286 187.889 27.2286C180.393 27.5856 178.305 23.2564 178.305 23.2564M172.946 42V17.185M172.946 17.185V6.65206M172.946 17.185C172.946 23.0023 168.266 27.718 162.494 27.718C156.721 27.718 152.042 23.0023 152.042 17.185V6.65206M146.203 10.7358C146.203 10.7358 144.114 6.40674 136.618 6.76385C136.618 6.76385 130.728 7.03163 129.979 10.5128C129.979 10.5128 127.998 16.9841 137.85 16.9841L138.169 17.0081C148.021 17.0081 146.04 23.4795 146.04 23.4795C145.29 26.9608 139.4 27.2286 139.4 27.2286C131.904 27.5856 129.816 23.2564 129.816 23.2564M127.128 26.7745C121.404 26.7745 116.764 22.0985 116.764 16.3307V0M41.9671 0.0700562V26.7745V16.2415C41.9671 10.4244 46.6467 5.70862 52.4194 5.70862C58.1919 5.70862 62.8716 10.4244 62.8716 16.2415V26.7745M37.8041 9.01115C34.7925 5.97627 30.5407 5.97639 30.5407 5.97639C24.817 5.97639 20.177 10.6521 20.177 16.4199C20.177 22.1877 24.817 26.8636 30.5407 26.8636C30.5407 26.8636 34.4824 27.0869 37.8041 23.7396M17.3869 9.92602C17.3869 9.92602 15.2987 5.59681 7.80247 5.95393C7.80247 5.95393 1.91259 6.2217 1.16302 9.70304C1.16302 9.70304 -0.818036 16.1743 9.03407 16.1743L9.35297 16.1981C19.2051 16.1981 17.2239 22.6696 17.2239 22.6696C16.4743 26.1509 10.5844 26.4187 10.5844 26.4187C3.08824 26.7757 1 22.4465 1 22.4465M99.8971 26.7745C94.1735 26.7745 89.5334 22.0985 89.5334 16.3307C89.5334 10.5628 94.1735 5.88693 99.8971 5.88693C105.621 5.88693 110.261 10.5628 110.261 16.3307C110.261 22.0985 105.621 26.7745 99.8971 26.7745ZM76.0697 26.7745C70.3461 26.7745 65.706 22.0985 65.706 16.3307C65.706 10.5628 70.3461 5.88693 76.0697 5.88693C81.7933 5.88693 86.4331 10.5628 86.4331 16.3307C86.4331 22.0985 81.7933 26.7745 76.0697 26.7745Z" stroke="white" stroke-width="1.5" stroke-miterlimit="10"/>
</svg>
