<svg xmlns="http://www.w3.org/2000/svg" viewBox="0 0 889.11 699.26"><title>open-source-keyhole-sparks</title><g id="99fa4462-a1c4-4cf1-9c72-5220034ccb9f" data-name="Calque 2"><g id="f0e710cb-b39f-4bd6-98aa-b4e154fb23e8" data-name="Calque 1"><path d="M335.6,683.75C237.33,642.25,168.36,545,168.36,431.59,168.36,280.49,290.85,158,442,158s273.6,122.5,273.6,273.6c0,113.33-68.91,210.57-167.1,252.1" fill="none" stroke="#000" stroke-linecap="square" stroke-miterlimit="10" stroke-width="22"/><path d="M335.6,683.75l77-160.43h0a96.31,96.31,0,1,1,58.79,0h0l77,160.43" fill="none" stroke="#000" stroke-linecap="square" stroke-miterlimit="10" stroke-width="22"/><line x1="74.57" y1="51.5" x2="173.56" y2="150.49" fill="none" stroke="#000" stroke-linecap="square" stroke-miterlimit="10" stroke-width="22"/><line x1="686.54" y1="150.49" x2="778.78" y2="58.25" fill="none" stroke="#000" stroke-linecap="square" stroke-miterlimit="10" stroke-width="22"/><line x1="764.53" y1="319.98" x2="875.53" y2="288.49" fill="none" stroke="#000" stroke-linecap="square" stroke-miterlimit="10" stroke-width="22"/><line x1="757.03" y1="582.47" x2="865.03" y2="657.47" fill="none" stroke="#000" stroke-linecap="square" stroke-miterlimit="10" stroke-width="22"/><line x1="124.06" y1="384.48" x2="11.57" y2="378.48" fill="none" stroke="#000" stroke-linecap="square" stroke-miterlimit="10" stroke-width="22"/><line x1="163.06" y1="619.97" x2="88.07" y2="683.75" fill="none" stroke="#000" stroke-linecap="square" stroke-miterlimit="10" stroke-width="22"/><line x1="441.96" y1="101" x2="441.96" y2="11" fill="none" stroke="#000" stroke-linecap="square" stroke-miterlimit="10" stroke-width="22"/></g></g></svg>