<svg xmlns="http://www.w3.org/2000/svg" preserveAspectRatio="none" viewBox="0 0 1440 320"><path fill="#1389F6" fill-opacity="1" d="M0,128L34.3,128C68.6,128,137,128,206,138.7C274.3,149,343,171,411,197.3C480,224,549,256,617,256C685.7,256,754,224,823,186.7C891.4,149,960,107,1029,85.3C1097.1,64,1166,64,1234,96C1302.9,128,1371,192,1406,224L1440,256L1440,0L1405.7,0C1371.4,0,1303,0,1234,0C1165.7,0,1097,0,1029,0C960,0,891,0,823,0C754.3,0,686,0,617,0C548.6,0,480,0,411,0C342.9,0,274,0,206,0C137.1,0,69,0,34,0L0,0Z"></path></svg>
